<?xml version="1.0" encoding="utf-8"?>
<!-- Generator: Adobe Illustrator 18.0.0, SVG Export Plug-In . SVG Version: 6.00 Build 0)  -->
<!DOCTYPE svg PUBLIC "-//W3C//DTD SVG 1.1//EN" "http://www.w3.org/Graphics/SVG/1.1/DTD/svg11.dtd">
<svg version="1.1" id="Capa_1" xmlns="http://www.w3.org/2000/svg" xmlns:xlink="http://www.w3.org/1999/xlink" x="0px" y="0px"
	 viewBox="0 0 841 243" enable-background="new 0 0 841 243" xml:space="preserve">
<path d="M688.8,105.6l-5.9,5.9c-6.1-6.1-14.5-9.9-23.8-9.9c-18.5,0-33.6,15-33.6,33.6c0,17.6,13.6,32.1,30.9,33.4l33.7-0.6
	c2.7,0,5.9,2.5,5.9,6v2.6l-38-0.1c-23.1,0.1-41.8-18.5-41.8-41.5c0-23,18.6-41.6,41.6-41.6l0.8,0l4.7-0.1
	C673.3,94.4,682.2,98.9,688.8,105.6z M455.1,93.1v40.3l0,0.8c0,9.4,3.9,17.9,10.1,24c6,5.9,14.3,9.6,23.4,9.6
	c17.5,0,31.9-13.5,33.4-30.6l-0.5-44h2.6c3.5,0,6,3.2,6,5.9l0,36.2c0.1,23.1-18.6,41.7-41.5,41.7c-16.3,0-27.1-9.8-29.7-12.5
	c-7.4-7.5-11.9-17.8-11.9-29.1l0-42.2H455.1z M280.1,134.8c-0.1-23.1,18.6-41.7,41.5-41.7c11.6,0,22.2,4.8,29.7,12.5l-6.3,6.3
	c-6-5.9-14.3-9.6-23.4-9.6c-16.3,0-29.9,11.7-32.9,27.1c-0.9,5.7-0.3,16.1,0,41.4c0,2.7-2.5,5.9-6,5.9h-2.6L280.1,134.8z M71.3,61.9
	c3.4,0,5.9,3,6,5.6c0,0.4,0,0.8,0,1.2c0,0.4,0,0.9,0,1.3v17.4c0,2.7,2.4,5.9,5.9,5.9l25.4,0h1.8h0.4l1.1,0l3.1,0
	c9.8,1,18.7,5.4,25.3,12l0.2,0.2c6.6,6.6,11,15.4,12,25.3c0.1,1.4,0.3,3,0.3,5.2l0,40.8h-2.6c-3.5,0-6-3.2-6-5.9l0-38.1
	c-1.1-17.5-15.6-31.3-33.4-31.3c-1,0-2,0-3,0.1H83.2c-2.7,0-5.9,2.4-5.9,5.9v28.7l0,40.4h-8.7V96.4v-3.2v-31v-0.4H71.3z M604.5,99.1
	v77.7h-8.7V93.2h2.6C602,93.2,604.5,96.4,604.5,99.1z M174.9,99.1v77.7h-8.5V93.2h2.6C172.5,93.2,174.9,96.4,174.9,99.1z
	 M351.9,135.1c0-23,18.6-41.6,41.6-41.6c22.6,0,41,18,41.6,40.5v0.2l0,0.9l0,0.9v40.7h-40.4c-0.4,0-0.8,0-1.2,0
	C370.5,176.7,351.9,158.1,351.9,135.1z M426.9,135.1l0-0.6c0-0.2,0-0.4,0-0.6c-0.6-18-15.4-32.4-33.5-32.4
	c-18.5,0-33.6,15-33.6,33.6s15,33.6,33.6,33.6c0.7,0,1.5,0,2.2-0.1H421c2.7,0,5.9-2.4,5.9-5.9v-27L426.9,135.1z M689.1,135.1
	c0-23,18.6-41.6,41.6-41.6c22.6,0,41,18,41.6,40.5v0.2l0,0.9l0,0.9v40.7h-40.4c-0.4,0-0.8,0-1.2,0
	C707.7,176.7,689.1,158.1,689.1,135.1z M764.2,135.1l0-0.6c0-0.2,0-0.4,0-0.6c-0.6-18-15.4-32.4-33.5-32.4
	c-18.5,0-33.6,15-33.6,33.6s15,33.6,33.6,33.6c0.7,0,1.5,0,2.2-0.1h25.4c2.7,0,5.9-2.4,5.9-5.9v-27L764.2,135.1z M389.9,81.3
	c0-3.1,2.7-6.7,6.7-6.7h3v9.5h-9.7V81.3z M542,134.6l-0.1-72.7h2.6c3.5,0,6,3.2,6,5.9l0,63.7c0,12.9,5.6,20.5,10.2,25.5
	c5.7,5.8,13.3,9.6,21.8,10.5h1.7l0,9.1h-4.9c-9.9-1-18.8-5.5-25.5-12.2C548.6,158.5,542,149.6,542,134.6z M226.5,168.4
	c17.9,0,32.5-14,33.5-31.6l0-0.7c0-0.4,0-29,0-29c0-2.7-2.4-5.9-5.9-5.9h-28.7c-18,0.6-32.5,15.4-32.5,33.6
	C193,153.4,208,168.4,226.5,168.4z M185,134.8c0-22.4,17.6-40.6,39.8-41.6c0.4,0,28.8,0,28.8,0c2.7,0,5.9-2.4,5.9-5.9l0-25.5h2.6
	c3.5,0,6,3.2,6,5.9l0,65c0,0.7,0.1,1.4,0.1,2.1c0,23-18.6,41.6-41.6,41.6S185,157.8,185,134.8z"/>
</svg>
