<?xml version="1.0" encoding="UTF-8" standalone="no"?>
<svg
   xmlns:dc="http://purl.org/dc/elements/1.1/"
   xmlns:cc="http://creativecommons.org/ns#"
   xmlns:rdf="http://www.w3.org/1999/02/22-rdf-syntax-ns#"
   xmlns:svg="http://www.w3.org/2000/svg"
   xmlns="http://www.w3.org/2000/svg"
   xmlns:sodipodi="http://sodipodi.sourceforge.net/DTD/sodipodi-0.dtd"
   xmlns:inkscape="http://www.inkscape.org/namespaces/inkscape"
   version="1.1"
   id="Capa_1"
   x="0px"
   y="0px"
   viewBox="0 0 841 243"
   preserveAspectRatio="xMinYMin meet"
   inkscape:version="0.91 r13725"
   sodipodi:docname="logo.svg">
  <metadata
     id="metadata4190">
    <rdf:RDF>
      <cc:Work
         rdf:about="">
        <dc:format>image/svg+xml</dc:format>
        <dc:type
           rdf:resource="http://purl.org/dc/dcmitype/StillImage" />
      </cc:Work>
    </rdf:RDF>
  </metadata>
  <defs
     id="defs4188" />
  <sodipodi:namedview
     pagecolor="#ffffff"
     bordercolor="#666666"
     borderopacity="1"
     objecttolerance="10"
     gridtolerance="10"
     guidetolerance="10"
     inkscape:pageopacity="0"
     inkscape:pageshadow="2"
     inkscape:window-width="2251"
     inkscape:window-height="1292"
     id="namedview4186"
     showgrid="false"
     inkscape:zoom="1.613775"
     inkscape:cx="469.79998"
     inkscape:cy="118.71463"
     inkscape:window-x="0"
     inkscape:window-y="0"
     inkscape:window-maximized="0"
     inkscape:current-layer="Capa_1" />
  <path
     d="m 739.18275,105.11162 -7.00662,7.00663 c -7.24415,-7.24414 -17.21969,-11.75689 -28.26403,-11.75689 -21.96993,0 -39.90214,17.81346 -39.90214,39.90216 0,20.90112 16.15086,38.12079 36.69572,39.66462 l 40.0209,-0.71254 c 3.20642,0 7.00663,2.96891 7.00663,7.12538 l 0,3.08768 -45.12743,-0.11875 c -27.43272,0.11875 -49.64017,-21.96995 -49.64017,-49.28391 0,-27.31397 22.0887,-49.402662 49.40266,-49.402662 l 0.95005,0 5.58156,-0.118756 c 11.87563,1.30632 22.44495,6.650358 30.28287,14.607038 z m -277.53367,-14.844551 0,47.858821 0,0.95006 c 0,11.16309 4.6315,21.25739 11.9944,28.50153 7.12538,7.00663 16.98216,11.40062 27.78899,11.40062 20.78237,0 37.88329,-16.03212 39.66464,-36.33946 l -0.59379,-52.252815 3.08767,0 c 4.15647,0 7.12538,3.800204 7.12538,7.006628 l 0,42.989817 c 0.11875,27.43272 -22.08869,49.52141 -49.2839,49.52141 -19.35729,0 -32.18297,-11.63813 -35.27065,-14.84455 -8.78796,-8.90673 -14.132,-21.13864 -14.132,-34.5581 l 0,-50.115205 9.61926,0 z M 253.82542,139.78848 c -0.11877,-27.43272 22.08869,-49.521411 49.28389,-49.521411 13.77575,0 26.36392,5.700306 35.27064,14.844551 l -7.48164,7.48165 c -7.12538,-7.00663 -16.98216,-11.40062 -27.789,-11.40062 -19.35728,0 -35.50815,13.8945 -39.07085,32.18299 -1.0688,6.76911 -0.35626,19.11979 0,49.16515 0,3.20641 -2.9689,7.00663 -7.12538,7.00663 l -3.08766,0 0,-49.75894 z M 5.8620946,53.215077 c 4.0377165,0 7.0066264,3.562692 7.1253834,6.650358 0,0.475026 0,0.950052 0,1.425077 0,0.475025 0,1.068806 0,1.543833 l 0,20.66361 c 0,3.206422 2.850153,7.006627 7.006625,7.006627 l 30.164117,0 2.137618,0 0.475026,0 1.306318,0 3.681448,0 c 11.638131,1.187564 22.207449,6.412844 30.04537,14.250758 l 0.237514,0.23753 c 7.837922,7.83791 13.063206,18.28848 14.250766,30.04537 0.11875,1.66258 0.35627,3.56268 0.35627,6.17532 l 0,48.45261 -3.087666,0 c -4.156475,0 -7.125383,-3.8002 -7.125383,-7.00662 l 0,-45.2462 c -1.306327,-20.78236 -18.526002,-37.17074 -39.664637,-37.17074 -1.187565,0 -2.375131,0 -3.562686,0.11875 l -29.214075,0 c -3.206422,0 -7.006625,2.85016 -7.006625,7.00663 l 0,34.08308 0,47.97759 -10.3318061,0 0,-95.242631 0,-3.800204 0,-36.814478 0,-0.475026 3.2064227,0 z m 633.2090154,44.177376 0,92.273717 -10.3318,0 0,-99.280345 3.08767,0 c 4.27522,0 7.24413,3.800204 7.24413,7.006628 z m -510.1774,0 0,92.273717 -10.0943,0 0,-99.280345 3.08768,0 c 4.15646,0 7.00662,3.800204 7.00662,7.006628 z M 339.0925,140.14475 c 0,-27.31397 22.08868,-49.402656 49.40265,-49.402656 26.83894,0 48.69012,21.376156 49.40266,48.096346 l 0,0.23751 0,1.0688 0,1.06881 0,48.33386 -47.97758,0 c -0.47503,0 -0.95005,0 -1.42508,0 -27.31397,0 -49.40265,-22.08869 -49.40265,-49.40267 z m 89.06728,0 0,-0.71254 c 0,-0.2375 0,-0.47501 0,-0.71253 -0.71253,-21.37614 -18.28848,-38.47707 -39.78338,-38.47707 -21.96994,0 -39.90215,17.81345 -39.90215,39.90214 0,22.08869 17.81346,39.90215 39.90215,39.90215 0.83129,0 1.78135,0 2.61263,-0.11876 l 30.16412,0 c 3.20643,0 7.00663,-2.85014 7.00663,-7.00662 l 0,-32.06423 0,-0.71254 z m 311.37924,0 c 0,-27.31397 22.08868,-49.402656 49.40265,-49.402656 26.83894,0 48.69012,21.376156 49.40266,48.096346 l 0,0.23751 0,1.0688 0,1.06881 0,48.33386 -47.97758,0 c -0.47502,0 -0.95004,0 -1.42508,0 -27.31397,0 -49.40265,-22.08869 -49.40265,-49.40267 z m 89.18605,0 0,-0.71254 c 0,-0.2375 0,-0.47501 0,-0.71253 -0.71255,-21.37614 -18.2885,-38.47707 -39.7834,-38.47707 -21.96993,0 -39.90214,17.81345 -39.90214,39.90214 0,22.08869 17.81346,39.90215 39.90214,39.90215 0.8313,0 1.78135,0 2.61264,-0.11876 l 30.16412,0 c 3.20643,0 7.00664,-2.85014 7.00664,-7.00662 l 0,-32.06423 0,-0.71254 z M 384.21993,76.253815 c 0,-3.681448 3.20642,-7.956677 7.95667,-7.956677 l 3.5627,0 0,11.281857 -11.51937,0 0,-3.32518 z m 180.62845,63.297155 -0.11875,-86.335893 3.08766,0 c 4.15647,0 7.12538,3.800205 7.12538,7.006627 l 0,75.647816 c 0,15.31958 6.65036,24.34506 12.11316,30.28288 6.7691,6.88787 15.7946,11.40062 25.88888,12.46942 l 2.01886,0 0,10.80684 -5.81906,0 c -11.75687,-1.18757 -22.32619,-6.53161 -30.28288,-14.48829 -6.17533,-7.00662 -14.01325,-17.57594 -14.01325,-35.3894 z M 190.172,179.69062 c 21.25738,0 38.59582,-16.62588 39.78339,-37.527 l 0,-0.83131 c 0,-0.47502 0,-34.43934 0,-34.43934 0,-3.20642 -2.85016,-7.006631 -7.00663,-7.006631 l -34.08308,0 c -21.37615,0.712531 -38.59583,18.288481 -38.59583,39.902141 0.11876,22.08869 17.93222,39.90214 39.90215,39.90214 z m -49.28391,-39.90214 c 0,-26.60142 20.90113,-48.215091 47.26504,-49.402655 0.47504,0 34.20185,0 34.20185,0 3.20643,0 7.00662,-2.850153 7.00662,-7.006626 l 0,-30.282878 3.08767,0 c 4.15648,0 7.12538,3.800204 7.12538,7.006628 l 0,77.191651 c 0,0.83129 0.11875,1.6626 0.11875,2.49388 0,27.31397 -22.08868,49.40265 -49.40265,49.40265 -27.31396,0 -49.40266,-22.08868 -49.40266,-49.40265 z"
     id="path4184"
     inkscape:connector-curvature="0" />
</svg>
